<svg xmlns="http://www.w3.org/2000/svg" width="45" height="40" viewBox="0 0 45 40" fill="none">
<path d="M32.6562 29.8571H12.3438C11.0469 29.8571 10 28.8043 10 27.5V13.3571C10 12.0529 11.0469 11 12.3438 11H32.6562C33.9531 11 35 12.0529 35 13.3571V27.5C35 28.8043 33.9531 29.8571 32.6562 29.8571ZM12.3438 12.5714C11.9062 12.5714 11.5625 12.9171 11.5625 13.3571V27.5C11.5625 27.94 11.9062 28.2857 12.3438 28.2857H32.6562C33.0938 28.2857 33.4375 27.94 33.4375 27.5V13.3571C33.4375 12.9171 33.0938 12.5714 32.6562 12.5714H12.3438Z" fill="#535456"/>
<path d="M22.2601 23.3402C21.1664 23.3402 20.1664 22.9002 19.4164 22.0987L11.2132 13.3302C10.9164 13.0159 10.932 12.513 11.2445 12.2144C11.557 11.9159 12.057 11.9316 12.3539 12.2459L20.557 21.0144C21.4476 21.973 23.0726 21.973 23.9632 21.0144L32.1664 12.2616C32.4632 11.9473 32.9632 11.9316 33.2757 12.2302C33.5882 12.5287 33.6039 13.0316 33.307 13.3459L25.1039 22.1144C24.3539 22.9159 23.3539 23.3559 22.2601 23.3559V23.3402Z" fill="#535456"/>
</svg>