<svg width="82" height="44" viewBox="0 0 82 44" fill="none" xmlns="http://www.w3.org/2000/svg">
<path d="M0 17.4059V1.24328C0 0.960258 0.0897218 0.717666 0.269165 0.515507C0.468547 0.313348 0.707806 0.212268 0.98694 0.212268H10.1386C10.9361 0.212268 11.7037 0.35378 12.4414 0.636803C13.1791 0.919826 13.8271 1.32415 14.3854 1.84976C14.9636 2.35516 15.4222 2.96164 15.7611 3.66919C16.1001 4.37675 16.2696 5.15507 16.2696 6.00414C16.2696 7.33839 15.8608 8.51091 15.0434 9.52171C14.2458 10.5123 13.229 11.1895 11.9928 11.5534L16.0602 16.7691C16.1998 16.9511 16.2696 17.1532 16.2696 17.3756C16.2696 17.416 16.2596 17.5171 16.2397 17.6788C16.2197 17.8406 16.1001 18.0124 15.8808 18.1943C15.7213 18.3359 15.5219 18.4066 15.2826 18.4066C14.9636 18.4066 14.6944 18.2853 14.4751 18.0427L9.63015 11.8263H2.00379V17.4059C2.00379 17.6889 1.9041 17.9315 1.70472 18.1337C1.50533 18.3156 1.26607 18.4066 0.98694 18.4066C0.707806 18.4066 0.468547 18.3156 0.269165 18.1337C0.0897218 17.9315 0 17.6889 0 17.4059ZM2.00379 2.24397V9.79463H10.1386C10.657 9.79463 11.1554 9.70365 11.6339 9.52171C12.1324 9.31955 12.571 9.05674 12.9499 8.73329C13.3486 8.38962 13.6676 7.9853 13.9069 7.52033C14.1461 7.05536 14.2658 6.54997 14.2658 6.00414C14.2658 5.45831 14.1461 4.95291 13.9069 4.48794C13.6676 4.02297 13.3486 3.62876 12.9499 3.30531C12.571 2.96164 12.1324 2.69883 11.6339 2.51688C11.1554 2.33494 10.657 2.24397 10.1386 2.24397H2.00379Z" fill="#333333"/>
<path d="M19.4105 5.45831C19.909 4.32621 20.5869 3.35585 21.4442 2.54721C22.3215 1.73857 23.3383 1.11188 24.4948 0.667126C25.6711 0.222375 26.9173 0 28.2332 0C29.5491 0 30.7853 0.222375 31.9417 0.667126C33.118 1.11188 34.1349 1.73857 34.9922 2.54721C35.8695 3.35585 36.5574 4.32621 37.0558 5.45831C37.5543 6.5904 37.8035 7.84379 37.8035 9.21847C37.8035 10.5932 37.5443 11.8465 37.0259 12.9786C36.5275 14.1107 35.8396 15.0811 34.9623 15.8897C34.105 16.6782 33.0981 17.2947 31.9417 17.7395C30.7853 18.1842 29.5491 18.4066 28.2332 18.4066C26.9173 18.4066 25.6811 18.1842 24.5247 17.7395C23.3683 17.2947 22.3514 16.6782 21.4741 15.8897C20.6168 15.0811 19.9289 14.1107 19.4105 12.9786C18.9121 11.8465 18.6628 10.5932 18.6628 9.21847C18.6628 7.84379 18.9121 6.5904 19.4105 5.45831ZM21.2947 12.1599C21.6934 13.0494 22.2318 13.8075 22.9097 14.4342C23.5876 15.0609 24.3851 15.5461 25.3023 15.8897C26.2194 16.2132 27.1964 16.3749 28.2332 16.3749C29.27 16.3749 30.237 16.2031 31.1342 15.8594C32.0513 15.5157 32.8489 15.0407 33.5268 14.4342C34.2246 13.8075 34.7729 13.0595 35.1717 12.1902C35.5704 11.3007 35.7698 10.3101 35.7698 9.21847C35.7698 8.12681 35.5704 7.13623 35.1717 6.24673C34.7928 5.35723 34.2545 4.60924 33.5567 4.00276C32.8788 3.37606 32.0812 2.90099 31.1641 2.57753C30.2669 2.23386 29.2899 2.06203 28.2332 2.06203C27.1964 2.06203 26.2194 2.23386 25.3023 2.57753C24.3851 2.90099 23.5776 3.37606 22.8798 4.00276C22.2019 4.60924 21.6635 5.35723 21.2648 6.24673C20.886 7.13623 20.6965 8.12681 20.6965 9.21847C20.6965 10.3101 20.8959 11.2906 21.2947 12.1599Z" fill="#333333"/>
<path d="M40.1879 17.4059V1.03101C40.1879 0.747991 40.2776 0.5054 40.4571 0.303241C40.6565 0.10108 40.8957 0 41.1749 0C41.454 0 41.6932 0.10108 41.8926 0.303241C42.092 0.5054 42.1917 0.747991 42.1917 1.03101V14.889L56.3677 0.303241C56.5671 0.10108 56.8064 0 57.0855 0C57.3647 0 57.5939 0.10108 57.7734 0.303241C57.9728 0.5054 58.0725 0.677235 58.0725 0.818746C58.0924 0.960258 58.1024 1.04112 58.1024 1.06134C58.1024 1.30393 58.0027 1.52631 57.8033 1.72846L49.1003 10.7043L57.6239 16.5569C57.8631 16.7186 57.9927 16.8904 58.0126 17.0724C58.0525 17.2341 58.0725 17.3453 58.0725 17.4059C58.0725 17.6081 58.0126 17.8001 57.893 17.9821C57.7136 18.2651 57.4444 18.4066 57.0855 18.4066C56.8861 18.4066 56.6967 18.346 56.5173 18.2247L47.6647 12.1599L41.9524 18.0427C41.773 18.2853 41.5138 18.4066 41.1749 18.4066C40.8957 18.4066 40.6565 18.3156 40.4571 18.1337C40.2776 17.9315 40.1879 17.6889 40.1879 17.4059Z" fill="#333333"/>
<path d="M61.1443 2.94142C61.5829 2.27429 62.181 1.72846 62.9387 1.30393C63.7163 0.859178 64.6235 0.535723 65.6603 0.333564C66.717 0.111188 67.8535 0 69.0697 0C69.6678 0 70.3059 0.0303241 70.9838 0.0909724C71.6816 0.151621 72.3595 0.272917 73.0175 0.45486C73.6954 0.616587 74.3334 0.838962 74.9315 1.12198C75.5496 1.40501 76.0879 1.7689 76.5465 2.21365C76.7459 2.41581 76.8456 2.6584 76.8456 2.94142C76.8456 3.20423 76.7559 3.44682 76.5764 3.66919C76.377 3.87135 76.1378 3.97243 75.8586 3.97243C75.6194 3.97243 75.3801 3.87135 75.1409 3.66919C74.782 3.32552 74.3533 3.05261 73.8549 2.85045C73.3564 2.64829 72.828 2.48656 72.2698 2.36527C71.7115 2.24397 71.1532 2.16311 70.595 2.12268C70.0367 2.08224 69.5283 2.06203 69.0697 2.06203C68.1525 2.06203 67.2852 2.13278 66.4678 2.27429C65.6702 2.39559 64.9824 2.58764 64.4042 2.85045C63.826 3.11326 63.3674 3.44682 63.0284 3.85114C62.6895 4.25546 62.52 4.74064 62.52 5.30669C62.52 5.87273 62.6994 6.32759 63.0583 6.67126C63.4172 7.01493 63.8957 7.28785 64.4939 7.49001C65.092 7.69217 65.7699 7.84379 66.5276 7.94487C67.2852 8.02573 68.0628 8.10659 68.8603 8.18746C69.8772 8.28854 70.8741 8.40983 71.8511 8.55134C72.848 8.69286 73.7253 8.93545 74.4829 9.27912C75.2605 9.60257 75.8786 10.0675 76.3372 10.674C76.8157 11.2603 77.0549 12.0689 77.0549 13.0999C77.0549 14.1916 76.7459 15.0912 76.1278 15.7988C75.5297 16.4861 74.782 17.0218 73.8848 17.4059C73.0075 17.79 72.0604 18.0528 71.0436 18.1943C70.0267 18.3359 69.0996 18.4066 68.2622 18.4066C67.6441 18.4066 66.9961 18.3763 66.3182 18.3156C65.6403 18.255 64.9624 18.1438 64.2845 17.9821C63.6266 17.8204 62.9985 17.598 62.4004 17.315C61.8022 17.0319 61.2739 16.6579 60.8153 16.193C60.596 15.9908 60.4863 15.7583 60.4863 15.4955C60.4863 15.2125 60.586 14.9699 60.7854 14.7677C61.0047 14.5454 61.244 14.4342 61.5032 14.4342C61.7623 14.4342 61.9916 14.5353 62.191 14.7374C62.5499 15.0811 62.9786 15.3641 63.477 15.5865C63.9954 15.7887 64.5238 15.9504 65.0621 16.0717C65.6204 16.193 66.1787 16.2738 66.7369 16.3143C67.2952 16.3547 67.8036 16.3749 68.2622 16.3749C68.7607 16.3749 69.3887 16.3446 70.1464 16.2839C70.924 16.2031 71.6716 16.0515 72.3894 15.8291C73.1072 15.5865 73.7253 15.2529 74.2437 14.8284C74.7621 14.4039 75.0212 13.8277 75.0212 13.0999C75.0212 12.5339 74.8418 12.0891 74.4829 11.7657C74.124 11.422 73.6455 11.1491 73.0474 10.9469C72.4492 10.7448 71.7713 10.5932 71.0137 10.4921C70.256 10.391 69.4784 10.3 68.6809 10.2192C67.6641 10.1181 66.6572 10.0069 65.6603 9.8856C64.6833 9.74409 63.806 9.5116 63.0284 9.18815C62.2708 8.84448 61.6527 8.3694 61.1742 7.76292C60.7156 7.15644 60.4863 6.3377 60.4863 5.30669C60.4863 4.39697 60.7056 3.60855 61.1443 2.94142Z" fill="#333333"/>
<path d="M79.4412 17.4059V1.03101C79.4412 0.747991 79.5409 0.5054 79.7403 0.303241C79.9397 0.10108 80.1789 0 80.4581 0C80.7372 0 80.9765 0.10108 81.1758 0.303241C81.3752 0.5054 81.4749 0.747991 81.4749 1.03101V17.4059C81.4749 17.6889 81.3752 17.9315 81.1758 18.1337C80.9765 18.3156 80.7372 18.4066 80.4581 18.4066C80.1789 18.4066 79.9397 18.3156 79.7403 18.1337C79.5409 17.9315 79.4412 17.6889 79.4412 17.4059Z" fill="#333333"/>
<path d="M55.2088 44C52.7365 44 51.5003 43.1105 51.5003 41.3315C51.5003 40.9272 51.6067 40.5633 51.8193 40.2398C52.032 39.9029 52.2912 39.6199 52.5969 39.3908C52.9159 39.1617 53.3346 38.9595 53.853 38.7843C54.3847 38.5956 54.8765 38.4473 55.3285 38.3395C55.7804 38.2317 56.3387 38.1306 57.0033 38.0363C57.6812 37.942 58.2328 37.8813 58.6581 37.8544C59.0968 37.8139 59.6418 37.7667 60.2931 37.7128C60.2798 36.9851 60.0538 36.4729 59.6152 36.1764C59.1898 35.8665 58.5053 35.7115 57.5615 35.7115C56.0197 35.7115 54.418 36.0753 52.7564 36.8031V34.3368C54.6971 33.609 56.5646 33.2451 58.3591 33.2451C61.6422 33.2451 63.2838 34.822 63.2838 37.9756V43.6765H60.3529L60.8713 40.26H60.6918C60.3728 41.5404 59.7614 42.4838 58.8575 43.0903C57.9537 43.6968 56.7374 44 55.2088 44ZM56.4649 41.8773C57.4884 41.8773 58.3724 41.6415 59.1167 41.1698C59.8611 40.6981 60.2399 40.0377 60.2532 39.1886C58.2062 39.3503 56.9102 39.4918 56.3653 39.6131C55.2088 39.8692 54.6306 40.2735 54.6306 40.8261C54.6306 41.1496 54.7968 41.4056 55.1291 41.5943C55.4614 41.783 55.9067 41.8773 56.4649 41.8773Z" fill="#333333"/>
<path d="M68.3831 43.6765H65.3924V33.5686H68.6623L68.2635 37.3287H68.4629C68.7288 35.8597 69.2937 34.8152 70.1577 34.1953C71.0216 33.5618 72.3575 33.2451 74.1652 33.2451V35.8125C72.0917 35.8125 70.6096 36.1562 69.719 36.8436C68.8284 37.5174 68.3831 38.663 68.3831 40.2803V43.6765Z" fill="#333333"/>
<path d="M79.2485 43.8787C77.9991 43.8787 77.1882 43.6159 76.8161 43.0903C76.4439 42.5647 76.2578 41.5471 76.2578 40.0377V35.7721H74.8621V33.5686H76.4372V31.1427L79.2685 30.7383V33.5686H82V35.7721H79.2685V39.4312C79.2685 40.4824 79.3482 41.1563 79.5077 41.4528C79.6805 41.7358 80.179 41.8773 81.0031 41.8773C81.1626 41.8773 81.4949 41.8638 82 41.8369V43.4744C81.1892 43.7439 80.272 43.8787 79.2485 43.8787Z" fill="#333333"/>
</svg>
