<svg xmlns="http://www.w3.org/2000/svg" width="12" height="17" viewBox="0 0 12 17" fill="none">
<g clip-path="url(#clip0_2004_5302)">
<path d="M8.76392 4.55409C8.68899 4.61931 8.60006 4.671 8.50224 4.70621C8.40442 4.74141 8.2996 4.75944 8.19379 4.75927C8.08798 4.75909 7.98325 4.74072 7.88558 4.70519C7.78791 4.66967 7.69921 4.61768 7.62456 4.55222L6.31552 3.4056V6.85953C6.31552 7.04601 6.23067 7.22487 6.07963 7.35673C5.92859 7.4886 5.72373 7.56269 5.51013 7.56269C5.29653 7.56269 5.09167 7.4886 4.94063 7.35673C4.78959 7.22487 4.70474 7.04601 4.70474 6.85953V3.39997L3.39463 4.54378C3.3209 4.61287 3.23198 4.66828 3.13319 4.70671C3.03439 4.74514 2.92774 4.76581 2.8196 4.76747C2.71146 4.76914 2.60404 4.75177 2.50376 4.71641C2.40347 4.68104 2.31237 4.6284 2.2359 4.56163C2.15942 4.49486 2.09912 4.41532 2.05862 4.32777C2.01811 4.24021 1.99822 4.14643 2.00013 4.05202C2.00203 3.9576 2.0257 3.86449 2.06972 3.77824C2.11374 3.69198 2.17721 3.61435 2.25634 3.54998L4.94099 1.20611C5.01578 1.14077 5.10459 1.08893 5.20234 1.05357C5.30009 1.0182 5.40486 1 5.51067 1C5.61648 1 5.72125 1.0182 5.819 1.05357C5.91675 1.08893 6.00555 1.14077 6.08035 1.20611L8.765 3.55936C8.8397 3.62478 8.8989 3.70241 8.93922 3.78782C8.97955 3.87323 9.0002 3.96474 9 4.05711C8.9998 4.14949 8.97875 4.24093 8.93806 4.3262C8.89737 4.41148 8.83783 4.48892 8.76285 4.55409H8.76392ZM8.76392 12.4567C8.91475 12.5885 8.99946 12.7672 8.99946 12.9536C8.99946 13.1399 8.91475 13.3186 8.76392 13.4505L6.07927 15.7944C5.92826 15.926 5.72356 16 5.51013 16C5.2967 16 5.092 15.926 4.94099 15.7944L2.25634 13.4505C2.17721 13.3861 2.11374 13.3085 2.06972 13.2222C2.0257 13.136 2.00203 13.0429 2.00013 12.9485C1.99822 12.854 2.01811 12.7603 2.05862 12.6727C2.09912 12.5851 2.15942 12.5056 2.2359 12.4388C2.31237 12.3721 2.40347 12.3194 2.50376 12.2841C2.60404 12.2487 2.71146 12.2313 2.8196 12.233C2.92774 12.2347 3.03439 12.2553 3.13319 12.2938C3.23198 12.3322 3.3209 12.3876 3.39463 12.4567L4.70474 13.6005V10.1409C4.70474 9.95445 4.78959 9.7756 4.94063 9.64373C5.09167 9.51187 5.29653 9.43778 5.51013 9.43778C5.72373 9.43778 5.92859 9.51187 6.07963 9.64373C6.23067 9.7756 6.31552 9.95445 6.31552 10.1409L6.31552 13.6005L7.62563 12.4567C7.77664 12.325 7.98135 12.251 8.19478 12.251C8.40821 12.251 8.61291 12.325 8.76392 12.4567Z" fill="#535456"/>
</g>
<defs>
<clipPath id="clip0_2004_5302">
<rect width="16" height="12" fill="white" transform="matrix(0 1 -1 0 12 0.5)"/>
</clipPath>
</defs>
</svg>