<svg xmlns="http://www.w3.org/2000/svg" width="240" height="240" viewBox="0 0 240 240" fill="none">
<path d="M86.25 202.5C86.25 204.725 85.5902 206.9 84.354 208.75C83.1179 210.6 81.3609 212.042 79.3052 212.894C77.2495 213.745 74.9875 213.968 72.8052 213.534C70.6229 213.1 68.6184 212.028 67.045 210.455C65.4717 208.882 64.4002 206.877 63.9662 204.695C63.5321 202.512 63.7549 200.25 64.6064 198.195C65.4578 196.139 66.8998 194.382 68.7498 193.146C70.5999 191.91 72.775 191.25 75 191.25C77.9837 191.25 80.8452 192.435 82.955 194.545C85.0647 196.655 86.25 199.516 86.25 202.5ZM172.5 191.25C170.275 191.25 168.1 191.91 166.25 193.146C164.4 194.382 162.958 196.139 162.106 198.195C161.255 200.25 161.032 202.512 161.466 204.695C161.9 206.877 162.972 208.882 164.545 210.455C166.118 212.028 168.123 213.1 170.305 213.534C172.488 213.968 174.75 213.745 176.805 212.894C178.861 212.042 180.618 210.6 181.854 208.75C183.09 206.9 183.75 204.725 183.75 202.5C183.75 199.516 182.565 196.655 180.455 194.545C178.345 192.435 175.484 191.25 172.5 191.25ZM213.581 68.6063L186.844 155.513C185.678 159.354 183.304 162.717 180.075 165.101C176.845 167.486 172.933 168.766 168.919 168.75H78.8156C74.7437 168.737 70.7855 167.405 67.5351 164.952C64.2846 162.5 61.917 159.059 60.7875 155.147L26.8781 36.4688C26.6539 35.6848 26.1802 34.9953 25.5289 34.5047C24.8776 34.0141 24.0842 33.7491 23.2687 33.75H7.5C6.50544 33.75 5.55161 33.3549 4.84835 32.6516C4.14509 31.9484 3.75 30.9946 3.75 30C3.75 29.0054 4.14509 28.0516 4.84835 27.3484C5.55161 26.6451 6.50544 26.25 7.5 26.25H23.2687C25.7115 26.2571 28.0861 27.0557 30.0366 28.5262C31.9871 29.9967 33.4084 32.0598 34.0875 34.4063L42.4688 63.75H210C210.587 63.7503 211.166 63.8884 211.69 64.1531C212.213 64.4179 212.668 64.8019 213.016 65.2743C213.365 65.7467 213.597 66.2943 213.695 66.873C213.793 67.4517 213.754 68.0454 213.581 68.6063ZM204.919 71.25H44.6063L67.9875 153.094C68.667 155.442 70.0898 157.506 72.0422 158.977C73.9946 160.447 76.3713 161.245 78.8156 161.25H168.919C171.327 161.259 173.674 160.491 175.611 159.061C177.548 157.631 178.972 155.614 179.672 153.309L204.919 71.25Z" fill="#AEAEB4"/>
</svg>