<svg xmlns="http://www.w3.org/2000/svg" width="16" height="15" viewBox="0 0 16 15" fill="none">
<path d="M3.55409 4.23614C3.61931 4.31107 3.671 4.4 3.70621 4.49782C3.74141 4.59565 3.75944 4.70046 3.75927 4.80627C3.75909 4.91208 3.74072 5.01681 3.70519 5.11448C3.66967 5.21215 3.61768 5.30085 3.55222 5.3755L2.4056 6.68454H5.85953C6.04601 6.68454 6.22487 6.76939 6.35673 6.92043C6.4886 7.07147 6.56269 7.27633 6.56269 7.48993C6.56269 7.70353 6.4886 7.90839 6.35673 8.05943C6.22487 8.21047 6.04601 8.29532 5.85953 8.29532H2.39997L3.54378 9.60543C3.61287 9.67917 3.66828 9.76808 3.70671 9.86688C3.74514 9.96567 3.76581 10.0723 3.76747 10.1805C3.76914 10.2886 3.75177 10.396 3.71641 10.4963C3.68104 10.5966 3.6284 10.6877 3.56163 10.7642C3.49486 10.8406 3.41532 10.9009 3.32777 10.9414C3.24021 10.982 3.14643 11.0018 3.05202 10.9999C2.9576 10.998 2.86449 10.9744 2.77824 10.9303C2.69198 10.8863 2.61435 10.8229 2.54998 10.7437L0.20611 8.05908C0.140768 7.98428 0.0889334 7.89547 0.053568 7.79772C0.0182027 7.69998 0 7.5952 0 7.48939C0 7.38358 0.0182027 7.27881 0.053568 7.18106C0.0889334 7.08332 0.140768 6.99451 0.20611 6.91971L2.55936 4.23507C2.62478 4.16036 2.70241 4.10116 2.78782 4.06084C2.87323 4.02051 2.96474 3.99986 3.05711 4.00006C3.14949 4.00026 3.24093 4.02131 3.3262 4.062C3.41148 4.10269 3.48892 4.16223 3.55409 4.23721V4.23614ZM11.4567 4.23614C11.5885 4.08532 11.7672 4.0006 11.9536 4.0006C12.1399 4.0006 12.3186 4.08532 12.4505 4.23614L14.7944 6.92079C14.926 7.0718 15 7.2765 15 7.48993C15 7.70336 14.926 7.90806 14.7944 8.05908L12.4505 10.7437C12.3861 10.8229 12.3085 10.8863 12.2222 10.9303C12.136 10.9744 12.0429 10.998 11.9485 10.9999C11.854 11.0018 11.7603 10.982 11.6727 10.9414C11.5851 10.9009 11.5056 10.8406 11.4388 10.7642C11.3721 10.6877 11.3194 10.5966 11.2841 10.4963C11.2487 10.396 11.2313 10.2886 11.233 10.1805C11.2347 10.0723 11.2553 9.96567 11.2938 9.86688C11.3322 9.76808 11.3876 9.67917 11.4567 9.60543L12.6005 8.29532H9.14094C8.95445 8.29532 8.7756 8.21047 8.64373 8.05943C8.51187 7.90839 8.43778 7.70353 8.43778 7.48993C8.43778 7.27633 8.51187 7.07147 8.64373 6.92043C8.7756 6.76939 8.95445 6.68454 9.14094 6.68454H12.6005L11.4567 5.37443C11.325 5.22342 11.251 5.01871 11.251 4.80528C11.251 4.59185 11.325 4.38715 11.4567 4.23614Z" fill="#535456"/>
</svg>